<svg xmlns="http://www.w3.org/2000/svg" viewBox="0 0 333.32 352.31">
  <g fill="#2ebe6e">
    <path d="M321.06,352.31A12.27,12.27,0,0,1,308.78,340c0-78.36-63.75-142.11-142.11-142.11S24.54,261.68,24.54,340A12.27,12.27,0,1,1,0,340c0-91.89,74.77-166.66,166.67-166.66S333.32,248.15,333.32,340A12.26,12.26,0,0,1,321.06,352.31Z"/>
    <path d="M166.67,193.34a96.67,96.67,0,1,1,96.68-96.68A96.79,96.79,0,0,1,166.67,193.34Zm0-168.8A72.13,72.13,0,1,0,238.8,96.67,72.21,72.21,0,0,0,166.67,24.54Z"/>
  </g>
</svg>
