<svg version="1.1" id="Layer_1" xmlns="http://www.w3.org/2000/svg" x="0" y="0" viewBox="0 0 806.8 239.2" xml:space="preserve"><style>.st1{fill:#fff}</style><path d="M410.1 238.4v-53.2h17.4c5.8 0 10.1 1.2 13 3.6 2.9 2.4 4.4 5.9 4.4 10.6 0 2.5-.7 4.7-2.1 6.6-1.4 1.9-3.3 3.4-5.8 4.4 2.9.8 5.1 2.3 6.8 4.6 1.7 2.3 2.5 4.9 2.5 8.1 0 4.8-1.5 8.5-4.6 11.2-3.1 2.7-7.5 4.1-13.1 4.1h-18.5zm7-30.5h10.6c3.1 0 5.5-.8 7.4-2.3 1.8-1.5 2.8-3.6 2.8-6.3 0-2.9-.9-5.1-2.6-6.4-1.7-1.3-4.3-2-7.8-2h-10.4v17zm0 5.7v19.1h11.6c3.3 0 5.8-.8 7.7-2.5 1.9-1.7 2.8-4 2.8-7 0-6.4-3.5-9.6-10.4-9.6h-11.7zm77-28.4v36.2c0 5-1.6 9.1-4.7 12.3-3.1 3.2-7.4 5-12.7 5.4l-1.9.1c-5.8 0-10.5-1.6-13.9-4.7-3.5-3.1-5.2-7.5-5.3-13v-36.2h6.9v36c0 3.8 1.1 6.8 3.2 9s5.1 3.2 9.1 3.2 7-1.1 9.1-3.2c2.1-2.1 3.2-5.1 3.2-8.9v-36h7zm18.6 53.2h-7v-53.2h7v53.2zm19.9-5.7h25.2v5.7h-32.3v-53.2h7v47.5zm33.2 5.7v-53.2h15c4.6 0 8.7 1 12.3 3.1 3.6 2 6.3 5 8.2 8.7 1.9 3.8 2.9 8.1 2.9 13v3.4c0 5-1 9.4-2.9 13.2-1.9 3.8-4.7 6.7-8.3 8.7-3.6 2-7.8 3.1-12.5 3.1h-14.7zm7-47.4v41.7h7.4c5.4 0 9.6-1.7 12.6-5s4.5-8.2 4.5-14.4v-3.1c0-6-1.4-10.7-4.3-14.1s-6.9-5.1-12.1-5.1h-8.1z" fill="#2fbe6e"/><path class="st1" d="M394.8 218.9v-4.7h-189m412 4.7v-4.7h189M261.5 107.5l-19 .1.2 42.4-23.9.1-.7-115.8 43-.2c13.7-.1 24.3 2.9 31.7 9 7.5 6.1 11.2 14.7 11.3 25.8 0 7.9-1.6 14.5-5 19.8-3.4 5.3-8.6 9.5-15.5 12.7l25.3 47.2v1.1l-25.6.1-21.8-42.3zm-19.2-19.3l19.3-.1c6 0 10.6-1.6 13.9-4.7 3.3-3.1 4.9-7.3 4.9-12.6 0-5.5-1.6-9.8-4.7-12.9-3.1-3.1-7.9-4.6-14.3-4.6l-19.2.1.1 34.8zm118.6 62.7c-12.6.1-22.9-3.7-30.9-11.4s-12-18-12.1-30.9v-2.2c-.1-8.6 1.6-16.4 4.9-23.2 3.3-6.8 8-12.1 14.1-15.8 6.1-3.7 13.1-5.6 20.9-5.7 11.8-.1 21.1 3.6 27.9 11 6.8 7.4 10.2 17.9 10.3 31.5l.1 9.4-54.8.3c.8 5.6 3 10.1 6.8 13.5 3.8 3.4 8.5 5 14.2 5 8.9-.1 15.8-3.3 20.7-9.7l11.4 12.6c-3.4 4.9-8.1 8.7-13.9 11.5-5.9 2.6-12.4 4-19.6 4.1zm-3-70.7c-4.6 0-8.3 1.6-11.1 4.7-2.8 3.1-4.6 7.5-5.4 13.3l32-.2v-1.8c-.1-5.1-1.5-9.1-4.2-11.8-2.6-2.9-6.4-4.3-11.3-4.2zm98 44.8c0-2.8-1.4-5-4.2-6.6-2.8-1.6-7.3-3-13.4-4.3-20.5-4.2-30.8-12.8-30.9-25.9 0-7.6 3.1-14 9.4-19.2 6.3-5.2 14.6-7.8 24.8-7.8 10.9-.1 19.7 2.5 26.3 7.6 6.6 5.1 9.9 11.8 9.9 20l-23 .1c0-3.3-1.1-6-3.2-8.1-2.1-2.1-5.5-3.2-10-3.2-3.9 0-6.9.9-9 2.7-2.1 1.8-3.2 4-3.1 6.7 0 2.5 1.2 4.6 3.7 6.1s6.5 2.9 12.2 4c5.7 1.1 10.6 2.4 14.5 3.8 12.2 4.4 18.3 12.1 18.4 23 0 7.9-3.3 14.2-10 19.1s-15.4 7.4-26.1 7.4c-7.2 0-13.6-1.2-19.2-3.7s-10-6-13.2-10.5c-3.2-4.5-4.8-9.3-4.9-14.5l21.8-.1c.2 4.1 1.8 7.2 4.6 9.4s6.6 3.2 11.3 3.2c4.4 0 7.7-.9 10-2.6 2.2-1.7 3.3-3.9 3.3-6.6zm88.8 14.5c-5.6 6.9-13.5 10.4-23.5 10.5-9.2.1-16.3-2.6-21.2-7.8-4.9-5.3-7.4-13-7.6-23.3l-.3-56.4 23-.1.3 55.7c.1 9 4.2 13.4 12.3 13.4 7.8 0 13.1-2.8 16-8.2l-.4-61 23.1-.1.5 86.1-21.6.1-.6-8.9zm60.7-77.7l.8 9.6c6.1-7.5 14.3-11.3 24.7-11.4 11.1-.1 18.7 4.3 22.9 13 6-8.8 14.6-13.2 25.8-13.3 9.3-.1 16.3 2.6 20.9 8 4.6 5.4 6.9 13.6 7 24.5l.3 55-23.1.1-.3-54.9c0-4.9-1-8.4-2.9-10.7-1.9-2.2-5.3-3.4-10.1-3.3-6.9 0-11.7 3.4-14.3 9.9l.4 59.1-23 .1-.3-54.8c0-5-1-8.6-3-10.8-2-2.2-5.3-3.3-10-3.3-6.5 0-11.2 2.8-14.1 8.2l.4 60.9-23 .1-.5-86.1 21.4.1zM765 148.5c-12.6.1-22.9-3.7-30.9-11.4s-12-18-12.1-30.9V104c-.1-8.6 1.6-16.4 4.9-23.2 3.3-6.8 8-12.1 14.1-15.8 6.1-3.7 13.1-5.6 20.9-5.7 11.8-.1 21.1 3.6 27.9 11 6.8 7.4 10.2 17.9 10.3 31.5l.1 9.4-54.8.3c.8 5.6 3 10.1 6.8 13.5 3.8 3.4 8.5 5 14.2 5 8.9-.1 15.8-3.3 20.7-9.7l11.4 12.6c-3.4 4.9-8.1 8.7-13.9 11.5-5.9 2.7-12.4 4.1-19.6 4.1zm-3-70.7c-4.6 0-8.3 1.6-11.1 4.7-2.8 3.1-4.6 7.5-5.4 13.3l32-.2v-1.8c-.1-5.1-1.5-9.1-4.2-11.8-2.6-2.8-6.4-4.2-11.3-4.2z"/><path class="st1" d="M160.7 13.7v-1.3h-9.3zM36.3 207.2H13.9v-3.1l-11.3-1.5 11.3-82.1V48.3h9.9l3.3-23.8 16.5-12.1H29.9L0 41.3v179.8h137.1z" opacity=".29"/><g id="_x31_29_3_"><path class="st1" d="M52.1 144c9.9 1.4 74.8 10.3 84.7 11.7 7.1 1 8.7-10.5 1.6-11.5-9.9-1.4-74.8-10.3-84.7-11.7-7.1-.9-8.7 10.5-1.6 11.5zM48 173.9c9.9 1.4 19.8 2.7 29.7 4.1 7.1 1 8.7-10.5 1.6-11.5-9.9-1.4-19.8-2.7-29.7-4.1-7.2-.9-8.7 10.5-1.6 11.5zm11.1-80.5c-7.1-1-8.7 10.5-1.6 11.5 9.9 1.4 74.8 10.3 84.7 11.7 7.1 1 8.7-10.5 1.6-11.5-9.9-1.4-74.8-10.3-84.7-11.7zm-4.1 30c9.9 1.4 74.8 10.3 84.7 11.7 7.1 1 8.7-10.5 1.6-11.5-9.9-1.4-74.8-10.3-84.7-11.7-7.2-.9-8.8 10.6-1.6 11.5zm93.9-66.5c-9.9-1.4-19.8-2.7-29.7-4.1-7.1-1-8.7 10.5-1.6 11.5 9.9 1.4 19.8 2.7 29.7 4.1 7.1.9 8.7-10.5 1.6-11.5zm-2.6 18.5c-9.9-1.4-19.8-2.7-29.7-4.1-7.1-1-8.7 10.5-1.6 11.5 9.9 1.4 19.8 2.7 29.7 4.1 7.2 1 8.8-10.5 1.6-11.5z"/><path class="st1" d="M27.1 24.6L2.6 202.7l159.2 21.9 28.5-206.8L60.7 0 27.1 24.6zm-8.8 166.2L39.9 33.4l22.9 3.2 3-21.8 108.8 15L149.9 209 18.3 190.8z"/></g></svg>